<!-- icon666.com - MILLIONS OF FREE VECTOR ICONS --><svg enable-background="new 0 0 24 24" viewBox="0 0 24 24" xmlns="http://www.w3.org/2000/svg"><g fill="#4caf50"><path d="m12 9c-1.654 0-3 1.346-3 3s1.346 3 3 3 3-1.346 3-3-1.346-3-3-3z"></path><path d="m12 0c-1.654 0-3 1.346-3 3s1.346 3 3 3 3-1.346 3-3-1.346-3-3-3z"></path><path d="m12 18c-1.654 0-3 1.346-3 3s1.346 3 3 3 3-1.346 3-3-1.346-3-3-3z"></path></g><g fill="#429846"><path d="m12 9c-1.654 0-3 1.346-3 3s1.346 3 3 3z"></path><path d="m12 0c-1.654 0-3 1.346-3 3s1.346 3 3 3z"></path><path d="m12 18c-1.654 0-3 1.346-3 3s1.346 3 3 3z"></path></g></svg>